<?xml version="1.0" encoding="UTF-8" standalone="no"?>
<svg
   xmlns:ns="http://ns.adobe.com/SaveForWeb/1.0/"
   xmlns:dc="http://purl.org/dc/elements/1.1/"
   xmlns:cc="http://creativecommons.org/ns#"
   xmlns:rdf="http://www.w3.org/1999/02/22-rdf-syntax-ns#"
   xmlns:svg="http://www.w3.org/2000/svg"
   xmlns="http://www.w3.org/2000/svg"
   xmlns:sodipodi="http://sodipodi.sourceforge.net/DTD/sodipodi-0.dtd"
   xmlns:inkscape="http://www.inkscape.org/namespaces/inkscape"
   height="300px"
   width="300px"
   fill="#FFFFFF"
   version="1.1"
   x="0px"
   y="0px"
   viewBox="0 0 100 100"
   enable-background="new 0 0 100 100"
   xml:space="preserve"
   id="svg867"
   sodipodi:docname="logo.svg"
   inkscape:version=""><defs
     id="defs871" /><sodipodi:namedview
     pagecolor="#ffffff"
     bordercolor="#666666"
     borderopacity="1"
     objecttolerance="10"
     gridtolerance="10"
     guidetolerance="10"
     inkscape:pageopacity="0"
     inkscape:pageshadow="2"
     inkscape:window-width="1596"
     inkscape:window-height="852"
     id="namedview869"
     showgrid="false"
     inkscape:zoom="2.22"
     inkscape:cx="123.68682"
     inkscape:cy="150"
     inkscape:window-x="0"
     inkscape:window-y="46"
     inkscape:window-maximized="0"
     inkscape:current-layer="svg867" /><metadata
     id="metadata863"><ns:sfw><ns:slices /><ns:sliceSourceBounds
         width="1447.7"
         height="1447.2"
         x="1"
         y="-1448.3"
         bottomLeftOrigin="true" /></ns:sfw><rdf:RDF><cc:Work
         rdf:about=""><dc:format>image/svg+xml</dc:format><dc:type
           rdf:resource="http://purl.org/dc/dcmitype/StillImage" /></cc:Work></rdf:RDF></metadata><path
     inkscape:connector-curvature="0"
     d="m 36.4,7.4 c 4.9,0 8.8,4 8.8,8.8 v 29 h -29 c -4.9,0 -8.8000003,-4 -8.8000003,-8.8 V 16.2 C 7.3999997,11.3 11.4,7.4 16.2,7.4 Z"
     id="path865-7"
     style="fill:#f3a7aa;fill-opacity:1;stroke-width:1"
     sodipodi:nodetypes="sscsssss" /><path
     d="m 45.2,83.8 v -29 h -29 c -4.9,0 -8.8,4 -8.8,8.8 v 20.2 c 0,4.9 4,8.8 8.8,8.8 h 20.2 c 4.9,0 8.8,-3.9 8.8,-8.8 z m 18.4,8.8 h 20.2 c 4.9,0 8.8,-4 8.8,-8.8 V 63.6 c 0,-4.9 -4,-8.8 -8.8,-8.8 h -29 v 29 c 0,4.9 3.9,8.8 8.8,8.8 z m 29,-56.2 V 16.2 c 0,-4.9 -4,-8.8 -8.8,-8.8 H 63.6 c -4.9,0 -8.8,4 -8.8,8.8 v 29 h 29 c 4.9,0 8.8,-3.9 8.8,-8.8 z"
     id="path865"
     style="fill:#0076ff;fill-opacity:1"
     inkscape:connector-curvature="0"
     sodipodi:nodetypes="scssssssssssscssssssscss" /></svg>